<svg height="1694" width="720" xmlns="http://www.w3.org/2000/svg">
<rect height="1694" fill="#555" width="720"></rect>
<text fill="#7f7" font-family="Courier New" font-size="12" xml:space="preserve">
<tspan x="10" y="26">17 megabytes installed</tspan>
<tspan x="10" y="42"></tspan>
<tspan x="10" y="58">node_modules</tspan>
<tspan x="10" y="74">└─┬ optimize-css-assets-webpack-plugin@1.3.1 </tspan>
<tspan x="10" y="90">  ├─┬ cssnano@3.10.0 </tspan>
<tspan x="10" y="106">  │ ├─┬ autoprefixer@6.7.7 </tspan>
<tspan x="10" y="122">  │ │ ├─┬ browserslist@1.7.7 </tspan>
<tspan x="10" y="138">  │ │ │ └── electron-to-chromium@1.3.6 </tspan>
<tspan x="10" y="154">  │ │ ├── caniuse-db@1.0.30000657 </tspan>
<tspan x="10" y="170">  │ │ ├── normalize-range@0.1.2 </tspan>
<tspan x="10" y="186">  │ │ └── num2fraction@1.2.2 </tspan>
<tspan x="10" y="202">  │ ├── decamelize@1.2.0 </tspan>
<tspan x="10" y="218">  │ ├── defined@1.0.0 </tspan>
<tspan x="10" y="234">  │ ├─┬ has@1.0.1 </tspan>
<tspan x="10" y="250">  │ │ └── function-bind@1.1.0 </tspan>
<tspan x="10" y="266">  │ ├── object-assign@4.1.1 </tspan>
<tspan x="10" y="282">  │ ├─┬ postcss@5.2.17 </tspan>
<tspan x="10" y="298">  │ │ ├─┬ chalk@1.1.3 </tspan>
<tspan x="10" y="314">  │ │ │ ├── ansi-styles@2.2.1 </tspan>
<tspan x="10" y="330">  │ │ │ ├── escape-string-regexp@1.0.5 </tspan>
<tspan x="10" y="346">  │ │ │ ├─┬ has-ansi@2.0.0 </tspan>
<tspan x="10" y="362">  │ │ │ │ └── ansi-regex@2.1.1 </tspan>
<tspan x="10" y="378">  │ │ │ ├── strip-ansi@3.0.1 </tspan>
<tspan x="10" y="394">  │ │ │ └── supports-color@2.0.0 </tspan>
<tspan x="10" y="410">  │ │ ├── js-base64@2.1.9 </tspan>
<tspan x="10" y="426">  │ │ └─┬ supports-color@3.2.3 </tspan>
<tspan x="10" y="442">  │ │   └── has-flag@1.0.0 </tspan>
<tspan x="10" y="458">  │ ├─┬ postcss-calc@5.3.1 </tspan>
<tspan x="10" y="474">  │ │ ├── postcss-message-helpers@2.0.0 </tspan>
<tspan x="10" y="490">  │ │ └─┬ reduce-css-calc@1.3.0 </tspan>
<tspan x="10" y="506">  │ │   ├── balanced-match@0.4.2 </tspan>
<tspan x="10" y="522">  │ │   ├── math-expression-evaluator@1.2.16 </tspan>
<tspan x="10" y="538">  │ │   └── reduce-function-call@1.0.2 </tspan>
<tspan x="10" y="554">  │ ├─┬ postcss-colormin@2.2.2 </tspan>
<tspan x="10" y="570">  │ │ └─┬ colormin@1.1.2 </tspan>
<tspan x="10" y="586">  │ │   ├─┬ color@0.11.4 </tspan>
<tspan x="10" y="602">  │ │   │ ├── clone@1.0.2 </tspan>
<tspan x="10" y="618">  │ │   │ ├─┬ color-convert@1.9.0 </tspan>
<tspan x="10" y="634">  │ │   │ │ └── color-name@1.1.2 </tspan>
<tspan x="10" y="650">  │ │   │ └── color-string@0.3.0 </tspan>
<tspan x="10" y="666">  │ │   └── css-color-names@0.0.4 </tspan>
<tspan x="10" y="682">  │ ├── postcss-convert-values@2.6.1 </tspan>
<tspan x="10" y="698">  │ ├── postcss-discard-comments@2.0.4 </tspan>
<tspan x="10" y="714">  │ ├── postcss-discard-duplicates@2.1.0 </tspan>
<tspan x="10" y="730">  │ ├── postcss-discard-empty@2.1.0 </tspan>
<tspan x="10" y="746">  │ ├── postcss-discard-overridden@0.1.1 </tspan>
<tspan x="10" y="762">  │ ├─┬ postcss-discard-unused@2.2.3 </tspan>
<tspan x="10" y="778">  │ │ └── uniqs@2.0.0 </tspan>
<tspan x="10" y="794">  │ ├─┬ postcss-filter-plugins@2.0.2 </tspan>
<tspan x="10" y="810">  │ │ └─┬ uniqid@4.1.1 </tspan>
<tspan x="10" y="826">  │ │   └── macaddress@0.2.8 </tspan>
<tspan x="10" y="842">  │ ├── postcss-merge-idents@2.1.7 </tspan>
<tspan x="10" y="858">  │ ├── postcss-merge-longhand@2.0.2 </tspan>
<tspan x="10" y="874">  │ ├─┬ postcss-merge-rules@2.1.2 </tspan>
<tspan x="10" y="890">  │ │ ├─┬ caniuse-api@1.6.1 </tspan>
<tspan x="10" y="906">  │ │ │ ├── lodash.memoize@4.1.2 </tspan>
<tspan x="10" y="922">  │ │ │ └── lodash.uniq@4.5.0 </tspan>
<tspan x="10" y="938">  │ │ ├─┬ postcss-selector-parser@2.2.3 </tspan>
<tspan x="10" y="954">  │ │ │ ├── flatten@1.0.2 </tspan>
<tspan x="10" y="970">  │ │ │ ├── indexes-of@1.0.1 </tspan>
<tspan x="10" y="986">  │ │ │ └── uniq@1.0.1 </tspan>
<tspan x="10" y="1002">  │ │ └── vendors@1.0.1 </tspan>
<tspan x="10" y="1018">  │ ├── postcss-minify-font-values@1.0.5 </tspan>
<tspan x="10" y="1034">  │ ├── postcss-minify-gradients@1.0.5 </tspan>
<tspan x="10" y="1050">  │ ├─┬ postcss-minify-params@1.2.2 </tspan>
<tspan x="10" y="1066">  │ │ └── alphanum-sort@1.0.2 </tspan>
<tspan x="10" y="1082">  │ ├── postcss-minify-selectors@2.1.1 </tspan>
<tspan x="10" y="1098">  │ ├── postcss-normalize-charset@1.1.1 </tspan>
<tspan x="10" y="1114">  │ ├─┬ postcss-normalize-url@3.0.8 </tspan>
<tspan x="10" y="1130">  │ │ ├── is-absolute-url@2.1.0 </tspan>
<tspan x="10" y="1146">  │ │ └─┬ normalize-url@1.9.1 </tspan>
<tspan x="10" y="1162">  │ │   ├── prepend-http@1.0.4 </tspan>
<tspan x="10" y="1178">  │ │   ├─┬ query-string@4.3.4 </tspan>
<tspan x="10" y="1194">  │ │   │ └── strict-uri-encode@1.1.0 </tspan>
<tspan x="10" y="1210">  │ │   └─┬ sort-keys@1.1.2 </tspan>
<tspan x="10" y="1226">  │ │     └── is-plain-obj@1.1.0 </tspan>
<tspan x="10" y="1242">  │ ├── postcss-ordered-values@2.2.3 </tspan>
<tspan x="10" y="1258">  │ ├── postcss-reduce-idents@2.4.0 </tspan>
<tspan x="10" y="1274">  │ ├── postcss-reduce-initial@1.0.1 </tspan>
<tspan x="10" y="1290">  │ ├── postcss-reduce-transforms@1.0.4 </tspan>
<tspan x="10" y="1306">  │ ├─┬ postcss-svgo@2.1.6 </tspan>
<tspan x="10" y="1322">  │ │ ├─┬ is-svg@2.1.0 </tspan>
<tspan x="10" y="1338">  │ │ │ └── html-comment-regex@1.1.1 </tspan>
<tspan x="10" y="1354">  │ │ └─┬ svgo@0.7.2 </tspan>
<tspan x="10" y="1370">  │ │   ├─┬ coa@1.0.1 </tspan>
<tspan x="10" y="1386">  │ │   │ └── q@1.5.0 </tspan>
<tspan x="10" y="1402">  │ │   ├── colors@1.1.2 </tspan>
<tspan x="10" y="1418">  │ │   ├─┬ csso@2.3.2 </tspan>
<tspan x="10" y="1434">  │ │   │ └── clap@1.1.3 </tspan>
<tspan x="10" y="1450">  │ │   ├─┬ js-yaml@3.7.0 </tspan>
<tspan x="10" y="1466">  │ │   │ ├─┬ argparse@1.0.9 </tspan>
<tspan x="10" y="1482">  │ │   │ │ └── sprintf-js@1.0.3 </tspan>
<tspan x="10" y="1498">  │ │   │ └── esprima@2.7.3 </tspan>
<tspan x="10" y="1514">  │ │   ├─┬ mkdirp@0.5.1 </tspan>
<tspan x="10" y="1530">  │ │   │ └── minimist@0.0.8 </tspan>
<tspan x="10" y="1546">  │ │   ├── sax@1.2.2 </tspan>
<tspan x="10" y="1562">  │ │   └── whet.extend@0.9.9 </tspan>
<tspan x="10" y="1578">  │ ├── postcss-unique-selectors@2.0.2 </tspan>
<tspan x="10" y="1594">  │ ├── postcss-value-parser@3.3.0 </tspan>
<tspan x="10" y="1610">  │ └── postcss-zindex@2.2.0 </tspan>
<tspan x="10" y="1626">  ├── underscore@1.8.3 </tspan>
<tspan x="10" y="1642">  └─┬ webpack-sources@0.1.5 </tspan>
<tspan x="10" y="1658">    ├── source-list-map@0.1.8 </tspan>
<tspan x="10" y="1674">    └── source-map@0.5.6</tspan>
</text>
</svg>
